<svg xmlns="http://www.w3.org/2000/svg" viewBox="0 0 240 200">
  <rect x="0" y="0" width="240" height="200" fill="#7FB069"/>
  <rect x="40" y="0" width="160" height="200" fill="#4A4A4A"/>
  <line x1="47" y1="0" x2="47" y2="200" stroke="#FFD100" stroke-width="4"/>
  <line x1="193" y1="0" x2="193" y2="200" stroke="#fff" stroke-width="4"/>
  <polyline points="96,58 120,30 144,58" fill="none" stroke="#fff" stroke-width="9" stroke-linejoin="miter"/>
  <polyline points="96,82 120,54 144,82" fill="none" stroke="#fff" stroke-width="9" stroke-linejoin="miter"/>
  <g transform="translate(120 140) rotate(-90) scale(1.35)" stroke="#fff" stroke-width="4.5" stroke-linecap="round" stroke-linejoin="round">
    <circle cx="-22" cy="8" r="13" fill="none"/>
    <circle cx="22" cy="8" r="13" fill="none"/>
    <polyline points="-22,8 -6,-12 0,8 -22,8" fill="none"/>
    <polyline points="-6,-12 14,-12 0,8" fill="none"/>
    <polyline points="22,8 14,-12 11,-20 18,-20" fill="none"/>
    <line x1="-11" y1="-14" x2="-1" y2="-14"/>
  </g>
</svg>
